<svg xmlns="http://www.w3.org/2000/svg" viewBox="0 0 316.69 95.03"><defs><style>.cls-1{fill:#ffbb79;}</style></defs><title>Recurso 2</title><g id="Capa_2" data-name="Capa 2"><g id="Capa_1-2" data-name="Capa 1"><path class="cls-1" d="M55.33,34.65C58.2,32.89,66.12,35.87,68,33.07,74.32,23.62,81.12,0,90.15,0H98a1.68,1.68,0,0,1,1.64,1.65,1.41,1.41,0,0,1-.41,1.05L97,5.4V37.18l2.23,2.64a1.43,1.43,0,0,1,.41,1.06A1.67,1.67,0,0,1,98,42.52H86.11a1.64,1.64,0,0,1-1.65-1.64,1.62,1.62,0,0,1,.36-1.06L87,37.18,87,31.5H75.91c-.65,1-6.5,13.18-9.5,14.17-4.75,1.58-7.79.12-9.5-1.57C53,40.16,54.92,34.88,55.33,34.65Zm23-7.09h9.5V7.09Z"/><path class="cls-1" d="M137.17,37.25a1.36,1.36,0,0,1,.41,1,1.65,1.65,0,0,1-1.61,1.6H124.28a1.61,1.61,0,0,1-1.61-1.6,1.59,1.59,0,0,1,.35-1l2.18-2.58V22.93c0-6.81-.74-9.22-3.28-9.22-1.55,0-3,1.32-4.25,2.86v18.1l2.18,2.58a1.58,1.58,0,0,1-1.21,2.63H106.91a1.57,1.57,0,0,1-1.21-2.63l2.18-2.58V17.32l-1.95-1.72a1.8,1.8,0,0,1-.64-1.37,1.9,1.9,0,0,1,1.33-1.78l1.26-.34,7-2.12a2.07,2.07,0,0,1,1.84.29,2.11,2.11,0,0,1,1,1.77V13.2A10.39,10.39,0,0,1,124.86,10c4.26,0,10.13,2.46,10.13,11.8V34.67Z"/><path class="cls-1" d="M170.91,37.25a1.36,1.36,0,0,1,.4,1,1.64,1.64,0,0,1-1.61,1.6h-6.56a4.13,4.13,0,0,1-4.08-3.32,14.35,14.35,0,0,1-9.21,3.89c-5.24,0-9.38-2.57-9.38-7.61,0-7.91,13.06-10.48,18.47-11.17V19.84c0-5.33-2.36-7.33-4.83-7.33-2.65,0-3.68,2.4-4.09,5.15A3.68,3.68,0,1,1,143.41,15c2.47-3.38,7.13-5,11.68-5,7.88,0,13.63,2.7,13.63,11.46V34.67ZM154.11,36c1.67,0,3.45-1.21,4.83-2.53V24.13c-3.62.57-8.11,2.64-8.11,7.73C150.83,34.61,151.86,36,154.11,36Z"/><path class="cls-1" d="M48.92,80.36C46.54,85,39.86,95,26.27,95,16.51,95,0,88.46,0,67s16.51-28,26.27-28c8.6,0,17.2,3.13,21.88,13a7.55,7.55,0,0,1-4,10.32l-.08.07A7.66,7.66,0,0,1,33.79,57.2c-2.07-7.56-6.91-11.31-12.21-10.77-5.6.53-7.45,7.94-7.45,16,0,11.32,6.68,23.46,17.67,23.46,6.83,0,11.13-5.11,13-7.94a2.49,2.49,0,0,1,3.07-.92A2.41,2.41,0,0,1,48.92,80.36Z"/><path class="cls-1" d="M94.44,90.75A1.81,1.81,0,0,1,95,92.12a2.19,2.19,0,0,1-2.15,2.14H84.07a5.53,5.53,0,0,1-5.45-4.43c-3,2.6-7.22,5.2-12.29,5.2-7,0-12.52-3.44-12.52-10.17,0-10.54,17.44-14,24.66-14.9V67.52c0-7.11-3.15-9.78-6.45-9.78-3.54,0-4.92,3.21-5.46,6.87A4.91,4.91,0,1,1,57.73,61c3.3-4.51,9.52-6.72,15.59-6.72,10.52,0,18.2,3.59,18.2,15.28V87.31ZM72,89.07c2.22,0,4.6-1.61,6.45-3.36V73.25c-4.84.76-10.83,3.51-10.83,10.32C67.64,87.23,69,89.07,72,89.07Z"/><path class="cls-1" d="M132.36,59a6.4,6.4,0,0,1-6.22,7.87c-4.38,0-6.53-9.4-10.83-1.91V87.31l2.92,3.44a2.17,2.17,0,0,1,.54,1.37,2.19,2.19,0,0,1-2.15,2.14H101a2.19,2.19,0,0,1-2.15-2.14,2.17,2.17,0,0,1,.54-1.37l2.92-3.44V64.16l-2.61-2.3A2.42,2.42,0,0,1,98.8,60a2.52,2.52,0,0,1,1.77-2.37l1.69-.46,9.29-2.83a2.95,2.95,0,0,1,3.76,2.76v3.59c2.23-3.29,5.61-6.65,10.22-6.65A6.74,6.74,0,0,1,132.36,59Z"/><path class="cls-1" d="M175.74,74.7c0,11.92-8.52,20.33-20.89,20.33S134,86.62,134,74.7s8.52-20.4,20.81-20.4S175.74,62.78,175.74,74.7Zm-13.9-1.22C159.77,61.94,156.69,58,152,58.81s-6.15,5.58-4.07,17.12,5.14,15.51,9.75,14.67S163.84,85,161.84,73.48Z"/><path class="cls-1" d="M199,90.75a2.17,2.17,0,0,1,.54,1.37,2.19,2.19,0,0,1-2.15,2.14H181.71a2.19,2.19,0,0,1-2.15-2.14,2.17,2.17,0,0,1,.54-1.37L183,87.31V49.18l-2.61-2.29a2.44,2.44,0,0,1-.85-1.84,2.56,2.56,0,0,1,1.77-2.37l1.69-.53,9.29-2.75a2.58,2.58,0,0,1,2.46.38,2.7,2.7,0,0,1,1.3,2.37V87.31Z"/><path class="cls-1" d="M223.56,90.75a2.17,2.17,0,0,1-1.69,3.51H206.28a2.19,2.19,0,0,1-2.15-2.14,1.84,1.84,0,0,1,.53-1.37l2.92-3.44V64.16L205,61.86a2.41,2.41,0,0,1-.84-1.83,2.52,2.52,0,0,1,1.77-2.37l1.68-.46,9.3-2.83a3,3,0,0,1,3.76,2.76V87.31Z"/><path class="cls-1" d="M271.16,90.75a1.85,1.85,0,0,1,.54,1.37,2.19,2.19,0,0,1-2.15,2.14H254a2.14,2.14,0,0,1-2.15-2.14,2.1,2.1,0,0,1,.46-1.37l2.92-3.44V71.65c0-9.1-1-12.31-4.38-12.31-2.07,0-4.07,1.76-5.68,3.82V87.31l2.92,3.44a2.22,2.22,0,0,1,.53,1.37,2.19,2.19,0,0,1-2.15,2.14H230.77a2.18,2.18,0,0,1-2.15-2.14,2.22,2.22,0,0,1,.53-1.37l2.92-3.44V64.16l-2.61-2.3a2.41,2.41,0,0,1-.84-1.83,2.51,2.51,0,0,1,1.76-2.37l1.69-.46,9.29-2.83a3,3,0,0,1,3.77,2.76v1.52a13.88,13.88,0,0,1,9.6-4.28c5.68,0,13.51,3.29,13.51,15.75V87.31Z"/><path class="cls-1" d="M316.15,90.75a1.85,1.85,0,0,1,.54,1.37,2.19,2.19,0,0,1-2.16,2.14h-8.75a5.52,5.52,0,0,1-5.45-4.43c-3,2.6-7.22,5.2-12.29,5.2-7,0-12.52-3.44-12.52-10.17,0-10.54,17.43-14,24.65-14.9V67.52c0-7.11-3.15-9.78-6.45-9.78-3.53,0-4.91,3.21-5.45,6.87A4.91,4.91,0,1,1,279.44,61c3.3-4.51,9.52-6.72,15.59-6.72,10.52,0,18.2,3.59,18.2,15.28V87.31Zm-22.43-1.68c2.23,0,4.61-1.61,6.45-3.36V73.25c-4.84.76-10.83,3.51-10.83,10.32C289.34,87.23,290.73,89.07,293.72,89.07Z"/><path class="cls-1" d="M219.49,47.24a.43.43,0,0,0,.73-.18c.25-1,.91-2.23.91-2.54a13.3,13.3,0,0,0-3.33-8.83c-7.4-7.36-25.75-1.63-25.75-1.63s-9.29,2.17-13.39,2.8c-7.14,1.1-9.95-2-9.95-2l-6.86-3.68s-3.73,2.71-2.57,5.89c2.22,6.07,16.08,3.83,24.7,1.08s18-3.51,23.56-1.63C210.53,37.52,217.51,45.06,219.49,47.24Z"/><path class="cls-1" d="M205.92,45.41c-.92-3.9,1.69-7.79,5.91-8.79s8.3,1.38,9.22,5.28-1.77,7.71-6,8.71S206.76,49.23,205.92,45.41Z"/></g></g></svg>